<?xml version="1.0" standalone="no"?>
<!DOCTYPE svg PUBLIC "-//W3C//DTD SVG 20010904//EN"
 "http://www.w3.org/TR/2001/REC-SVG-20010904/DTD/svg10.dtd">
<svg version="1.0" xmlns="http://www.w3.org/2000/svg"
 width="715.000000pt" height="715.000000pt" viewBox="0 0 715.000000 715.000000"
 preserveAspectRatio="xMidYMid meet">
<metadata>
Created by potrace 1.11, written by Peter Selinger 2001-2013
</metadata>
<g transform="translate(0.000000,715.000000) scale(0.100000,-0.100000)"
fill="#000000" stroke="none">
<path d="M3000 6530 c0 -5 5 -10 10 -10 6 0 10 5 10 10 0 6 -4 10 -10 10 -5 0
-10 -4 -10 -10z"/>
<path d="M3235 6398 c-24 -19 -31 -20 -59 -10 -60 22 -195 9 -217 -21 -3 -4
-26 -3 -50 4 -24 6 -55 11 -69 11 -34 0 -132 -30 -102 -31 14 -1 21 -5 16 -12
-4 -7 -36 -9 -90 -7 -60 3 -85 1 -88 -8 -3 -7 -13 -11 -23 -9 -10 2 -35 6 -55
9 l-38 5 0 -39 c0 -29 -5 -42 -19 -50 -27 -14 -34 -13 -60 11 -15 14 -25 18
-30 11 -10 -17 -58 -32 -104 -33 -23 -1 -34 -3 -24 -6 19 -5 24 -35 5 -32 -44
5 -68 -2 -68 -21 0 -12 7 -20 18 -21 35 -1 -22 -18 -65 -18 -36 -1 -40 -3 -36
-21 5 -19 2 -21 -37 -24 -9 -1 -16 -13 -18 -28 -2 -16 -9 -28 -18 -28 -8 0
-30 -16 -48 -35 -23 -24 -44 -35 -63 -35 -20 0 -24 -3 -14 -9 11 -7 9 -10 -7
-15 -12 -4 -19 -13 -16 -20 3 -7 -2 -19 -11 -26 -8 -7 -15 -18 -15 -25 0 -7
-11 -20 -25 -29 -14 -9 -25 -25 -25 -34 0 -21 -38 -65 -49 -57 -5 2 -11 -14
-15 -37 -4 -26 -10 -38 -16 -32 -6 6 -6 22 0 44 11 40 5 53 -9 19 -59 -146
-66 -177 -35 -165 8 3 14 2 15 -2 0 -4 2 -17 5 -30 2 -13 -1 -32 -7 -43 -10
-20 -11 -20 -24 -2 -12 14 -15 15 -16 3 -1 -23 -5 -51 -12 -95 -3 -22 -4 -34
-1 -27 8 17 25 15 18 -3 -4 -8 -1 -15 5 -15 13 0 10 -60 -4 -60 -5 0 -1 -8 10
-16 14 -11 16 -18 8 -21 -17 -6 -16 -32 1 -39 8 -3 12 -13 9 -25 -4 -13 0 -19
11 -19 14 0 15 -4 6 -20 -7 -13 -8 -26 -1 -38 9 -16 10 -16 16 1 7 18 45 24
45 7 0 -5 -7 -7 -15 -4 -17 7 -21 -11 -4 -21 6 -4 8 -13 5 -21 -3 -8 1 -14 9
-14 9 0 13 7 10 18 -3 9 1 4 9 -13 8 -16 15 -37 16 -46 0 -10 12 -19 29 -22
20 -4 28 -12 27 -24 0 -10 5 -17 12 -15 8 1 16 -7 19 -18 3 -11 12 -20 20 -20
9 0 13 -6 9 -15 -3 -9 1 -16 9 -16 25 -2 29 -4 57 -23 15 -10 25 -22 22 -28
-3 -5 2 -16 12 -24 11 -9 13 -12 5 -8 -10 5 -12 3 -7 -5 5 -7 11 -10 14 -7 3
3 11 1 19 -5 10 -9 17 -8 28 1 14 12 20 7 16 -14 -1 -5 5 -6 14 -2 9 3 23 6
31 6 8 0 14 7 14 15 0 8 7 15 15 15 9 0 21 11 27 25 6 14 18 25 25 25 10 0 12
6 8 20 -4 13 0 23 13 31 11 7 18 18 15 24 -2 7 6 30 17 51 45 80 59 110 65
139 6 26 8 28 15 10 7 -19 7 -19 14 3 4 12 12 22 17 22 5 0 9 9 9 20 0 11 -4
20 -10 20 -5 0 -10 -4 -10 -10 0 -5 -4 -10 -10 -10 -21 0 -9 18 25 36 31 17
37 17 45 4 7 -10 8 -5 4 18 -5 25 -3 32 10 32 9 0 16 -4 16 -10 0 -18 15 -11
25 13 7 16 17 21 35 18 27 -3 42 -19 33 -34 -3 -5 0 -7 8 -5 8 3 14 17 14 31
-1 16 5 27 12 27 9 0 12 -9 8 -27 -6 -26 -5 -26 6 -8 7 11 17 23 23 27 8 5 7
14 -2 28 -11 18 -11 21 5 18 13 -2 20 9 31 45 11 40 18 49 42 53 19 4 27 11
23 20 -6 17 11 18 25 2 5 -7 13 -29 17 -48 12 -64 16 -73 27 -62 8 8 16 6 26
-5 15 -14 19 -13 43 16 15 18 33 31 40 30 20 -4 59 23 59 41 0 12 2 12 9 2 7
-12 12 -12 30 0 19 11 24 11 35 -4 7 -10 19 -18 25 -18 7 0 9 -4 6 -10 -3 -5
1 -10 9 -10 9 0 16 -4 16 -10 0 -5 5 -10 10 -10 6 0 10 12 10 28 0 15 9 38 19
51 15 20 19 21 24 7 4 -9 13 -16 22 -16 9 0 26 -12 39 -27 17 -20 27 -24 42
-18 22 9 21 9 54 0 18 -5 21 -4 10 4 -8 5 -11 13 -7 17 10 10 39 -17 33 -32
-3 -9 7 -13 36 -12 43 0 80 22 55 31 -8 3 -6 9 7 19 10 8 17 19 13 24 -6 10
39 71 47 63 3 -2 6 -37 8 -77 1 -45 6 -71 13 -68 5 2 9 9 8 15 -2 6 1 11 6 11
5 0 13 9 16 21 4 12 12 18 21 15 9 -3 17 2 21 12 13 36 53 69 78 64 17 -3 25
0 25 10 0 8 11 21 25 28 14 7 25 17 25 22 0 4 7 8 15 8 8 0 15 6 16 13 0 6 4
3 9 -8 8 -18 9 -18 9 -2 1 10 9 20 19 24 9 3 31 16 48 29 17 13 34 20 38 17 3
-3 12 -1 20 6 11 9 15 9 19 -1 3 -8 6 -6 6 5 1 13 7 17 23 15 18 -2 25 -13 33
-55 9 -46 25 -82 25 -57 0 6 40 10 97 9 l98 -2 16 -43 c9 -24 21 -46 28 -48 6
-2 11 -8 11 -13 0 -6 -6 -7 -12 -4 -7 4 -5 0 5 -8 9 -8 17 -22 17 -31 0 -13 5
-16 23 -10 12 4 25 11 28 16 4 7 9 6 13 0 4 -6 13 -9 21 -5 8 3 15 0 15 -6 0
-40 89 -69 108 -34 9 14 11 14 21 -5 7 -12 21 -22 31 -22 12 0 20 -7 20 -16 0
-20 28 -43 53 -44 9 0 17 -4 17 -10 0 -5 8 -17 19 -27 24 -24 35 -67 15 -59
-8 3 -12 1 -9 -4 3 -5 22 -12 41 -16 24 -4 34 -11 30 -20 -3 -8 -1 -14 5 -14
6 0 7 -4 4 -10 -3 -5 -1 -10 6 -10 6 0 9 -8 6 -20 -3 -13 0 -20 10 -20 9 0 13
-6 10 -14 -3 -8 -3 -16 1 -18 11 -5 52 -66 52 -78 0 -5 5 -10 10 -10 6 0 10
-7 10 -16 0 -11 5 -14 16 -10 9 3 24 -4 38 -19 13 -14 28 -25 34 -25 6 0 19
-13 29 -30 18 -32 28 -37 38 -20 7 12 -3 51 -13 47 -4 -1 -8 3 -10 8 -2 6 -10
18 -19 27 -19 21 -10 53 13 44 9 -4 13 -2 8 5 -4 6 -1 14 5 18 6 4 13 30 15
58 1 27 6 55 10 61 4 7 0 12 -10 12 -16 0 -16 1 -1 18 20 22 23 72 5 72 -10 0
-10 2 -1 8 13 8 6 62 -8 62 -5 0 -9 5 -9 11 0 5 5 7 10 4 6 -4 10 6 10 24 0
16 5 33 10 36 7 5 8 11 1 19 -11 13 2 42 16 33 5 -3 9 3 9 13 0 13 -4 16 -12
9 -14 -12 -26 13 -18 36 8 21 -4 67 -16 60 -6 -3 -10 -2 -10 4 0 5 6 12 13 14
7 3 4 6 -7 6 -15 1 -16 4 -7 15 9 11 8 17 -3 28 -10 11 -11 19 -3 33 7 14 7
20 -2 23 -7 2 -16 15 -22 29 -5 13 -13 22 -18 19 -8 -5 -24 32 -26 60 -1 23
-49 104 -61 104 -13 0 -40 39 -36 53 1 4 -6 7 -15 7 -9 0 -13 3 -10 7 4 3 -3
11 -16 18 -12 6 -21 17 -20 23 2 6 -18 17 -43 25 -25 7 -44 17 -42 22 2 6 -9
11 -24 13 -26 3 -41 22 -17 22 5 0 7 5 4 10 -3 6 -19 10 -36 10 -22 0 -29 5
-29 19 0 22 -19 31 -66 31 -19 0 -34 5 -34 10 0 6 -10 10 -22 10 -13 0 -36 7
-52 15 -15 8 -35 15 -42 15 -8 0 -14 5 -14 10 0 6 -8 10 -17 10 -15 0 -16 -2
-3 -10 13 -8 12 -10 -2 -10 -10 0 -18 5 -18 10 0 6 -9 10 -21 10 -15 0 -19 5
-15 15 6 17 -7 18 -74 5 -57 -10 -72 -2 -31 18 39 19 36 23 -10 13 -32 -7 -35
-6 -37 17 -2 31 1 28 -45 35 -29 5 -42 2 -57 -13 -16 -16 -21 -16 -38 -4 -11
7 -22 11 -25 8 -3 -3 -19 2 -36 10 -20 11 -37 13 -53 7 -13 -5 -38 -6 -56 -4
-27 4 -34 11 -39 34 -5 27 -26 39 -37 21 -6 -10 -96 -2 -96 9 0 5 -18 9 -40 9
-22 0 -40 -4 -40 -10 0 -17 -28 -11 -39 7 -8 15 -14 16 -44 5 -26 -9 -47 -10
-86 -1 -28 6 -53 15 -57 20 -9 15 -29 10 -59 -13z m-1055 -292 c0 -3 -4 -8
-10 -11 -5 -3 -10 -1 -10 4 0 6 5 11 10 11 6 0 10 -2 10 -4z m-260 -176 c0 -5
-2 -10 -4 -10 -3 0 -8 5 -11 10 -3 6 -1 10 4 10 6 0 11 -4 11 -10z m1765 -17
c87 -3 210 -34 226 -57 4 -5 12 -5 19 -1 6 4 22 3 33 -3 153 -72 307 -164 307
-182 0 -14 -40 1 -50 20 -5 10 -24 20 -42 24 -17 3 -43 14 -57 23 -38 25 -133
73 -145 73 -5 0 -28 9 -50 20 -23 10 -83 28 -135 39 -80 18 -113 20 -210 14
-64 -4 -177 -6 -251 -5 -74 2 -160 -2 -190 -8 -30 -6 -66 -12 -81 -14 -14 -1
-39 -11 -57 -21 -17 -11 -34 -16 -38 -12 -12 11 16 35 49 42 18 4 51 13 74 21
63 20 229 30 248 14 11 -9 15 -9 15 -1 0 7 4 10 9 6 5 -3 12 -1 16 5 8 13 78
13 92 -1 8 -8 17 -8 30 -1 12 7 25 7 34 1 7 -5 19 -9 24 -9 6 0 3 5 -5 10 -10
6 -4 8 21 4 22 -4 39 -2 43 5 4 6 13 8 19 4 7 -4 30 -9 52 -10z m-785 -106 c0
-7 -13 -14 -30 -15 -28 -2 -38 7 -23 21 12 12 53 7 53 -6z m-55 -36 c-6 -5
-26 -12 -45 -15 -33 -7 -34 -6 -16 9 21 16 77 22 61 6z m-175 -85 c0 -2 -7 -6
-15 -10 -8 -3 -15 -1 -15 4 0 6 7 10 15 10 8 0 15 -2 15 -4z m1469 -33 c2 -2
-5 -3 -17 -3 -14 0 -22 6 -22 16 0 14 3 15 18 3 9 -7 19 -15 21 -16z m-2462
-13 c-3 -21 -17 -40 -17 -22 0 13 11 42 16 42 2 0 3 -9 1 -20z m963 10 c0 -5
-7 -10 -15 -10 -8 0 -15 5 -15 10 0 6 7 10 15 10 8 0 15 -4 15 -10z m-50 -24
c0 -11 -58 -64 -77 -70 -13 -4 -22 -11 -20 -15 2 -10 -53 -64 -59 -58 -11 10
10 37 28 37 12 0 18 5 15 13 -2 7 11 26 31 42 20 17 41 35 46 42 10 11 36 18
36 9z m1553 -10 c23 -18 22 -26 -5 -26 -30 1 -65 26 -46 33 21 9 32 7 51 -7z
m-1788 -376 c-3 -5 -14 -10 -23 -10 -15 0 -15 2 -2 10 20 13 33 13 25 0z
m-565 -180 c0 -5 -2 -10 -4 -10 -3 0 -8 5 -11 10 -3 6 -1 10 4 10 6 0 11 -4
11 -10z"/>
<path d="M2562 6385 c0 -16 2 -22 5 -12 2 9 2 23 0 30 -3 6 -5 -1 -5 -18z"/>
<path d="M2590 6371 c-6 -12 -7 -21 -1 -21 10 0 24 30 17 37 -2 3 -9 -5 -16
-16z"/>
<path d="M3930 6350 c-8 -5 -11 -12 -8 -16 10 -9 38 3 38 16 0 12 -10 13 -30
0z"/>
<path d="M1886 6001 c-7 -10 22 -37 30 -28 4 3 -1 13 -9 22 -9 8 -18 11 -21 6z"/>
<path d="M1635 5538 c-11 -12 -14 -18 -7 -14 7 4 18 3 25 -2 9 -8 12 -4 12 14
0 29 -4 29 -30 2z"/>
<path d="M4100 5556 c0 -10 28 -13 41 -5 10 6 7 9 -13 9 -16 0 -28 -2 -28 -4z"/>
<path d="M3240 5400 c-13 -8 -12 -10 3 -10 9 0 17 5 17 10 0 12 -1 12 -20 0z"/>
<path d="M4537 5305 c3 -8 9 -12 14 -9 12 7 11 11 -5 17 -10 4 -13 1 -9 -8z"/>
<path d="M4997 4983 c-4 -3 -7 -13 -7 -22 1 -13 3 -13 11 2 11 19 8 33 -4 20z"/>
<path d="M5010 4938 c0 -16 4 -28 8 -28 5 0 7 -17 5 -37 -1 -21 2 -65 9 -98
11 -58 14 -84 17 -132 0 -13 5 -23 11 -23 11 0 2 197 -11 222 -5 9 -9 28 -9
41 0 14 -7 38 -15 53 l-15 29 0 -27z"/>
<path d="M2011 4764 c0 -11 3 -14 6 -6 3 7 2 16 -1 19 -3 4 -6 -2 -5 -13z"/>
<path d="M2535 4650 c-3 -5 1 -10 10 -10 12 0 15 -6 10 -19 -3 -11 -1 -22 5
-26 5 -3 10 -1 10 5 0 6 12 16 28 22 l27 12 -25 4 c-14 2 -29 8 -34 13 -13 12
-23 11 -31 -1z"/>
<path d="M2511 4604 c0 -11 3 -14 6 -6 3 7 2 16 -1 19 -3 4 -6 -2 -5 -13z"/>
<path d="M2460 4559 c0 -5 5 -7 10 -4 6 3 10 8 10 11 0 2 -4 4 -10 4 -5 0 -10
-5 -10 -11z"/>
<path d="M2510 4560 c0 -5 5 -10 10 -10 6 0 10 5 10 10 0 6 -4 10 -10 10 -5 0
-10 -4 -10 -10z"/>
<path d="M2550 4550 c0 -5 5 -10 10 -10 6 0 10 5 10 10 0 6 -4 10 -10 10 -5 0
-10 -4 -10 -10z"/>
<path d="M4112 4394 c-30 -8 -58 -12 -62 -9 -11 7 -7 -46 5 -64 6 -10 4 -13
-6 -9 -9 4 -15 -1 -15 -11 0 -15 3 -16 24 -5 20 10 27 9 41 -4 10 -10 16 -20
14 -24 -2 -5 5 -8 16 -8 25 0 28 15 5 24 -22 9 -7 26 23 26 20 0 24 -4 20 -20
-6 -22 3 -26 20 -9 7 7 9 25 6 40 -3 18 -1 29 6 29 6 0 11 -10 12 -22 0 -13 3
-17 6 -10 2 6 13 12 24 12 10 0 19 5 19 10 0 6 -4 10 -9 10 -5 0 -12 12 -15
26 -5 20 -12 25 -26 21 -11 -3 -23 -1 -26 4 -7 12 -18 11 -82 -7z"/>
<path d="M2765 4356 c-33 -10 -40 -17 -46 -43 -7 -36 -4 -43 22 -43 10 0 34
-9 54 -20 40 -22 55 -25 55 -10 0 6 -8 10 -17 8 -11 -2 -18 3 -18 12 0 9 11
16 28 18 19 2 27 -1 27 -12 0 -19 16 -21 26 -4 4 6 0 16 -9 23 -10 7 -17 17
-17 23 0 6 -12 13 -27 15 -23 3 -21 4 10 6 24 0 36 -3 35 -11 -2 -7 7 -14 20
-16 16 -2 22 -10 22 -28 0 -13 -5 -24 -10 -24 -6 0 -10 -8 -8 -17 2 -10 -3
-17 -9 -15 -7 1 -13 -3 -13 -9 0 -6 -7 -8 -16 -5 -10 4 -13 2 -8 -6 5 -7 2 -9
-8 -6 -9 4 -36 10 -62 13 -36 6 -50 13 -61 34 -9 17 -14 20 -15 10 0 -9 10
-29 22 -45 12 -16 23 -31 25 -33 6 -8 116 0 134 10 28 15 51 66 47 107 -3 31
0 37 22 42 19 4 8 9 -47 19 -39 8 -80 11 -92 8 -11 -2 -21 -2 -23 3 -2 4 -21
2 -43 -4z"/>
<path d="M4245 4300 c3 -5 11 -10 16 -10 6 0 7 5 4 10 -3 6 -11 10 -16 10 -6
0 -7 -4 -4 -10z"/>
<path d="M4066 4244 c-5 -14 -4 -15 9 -4 17 14 19 20 6 20 -5 0 -12 -7 -15
-16z"/>
<path d="M4220 4238 c-14 -5 -50 -11 -80 -12 -31 -2 -56 -8 -58 -15 -6 -19
137 -7 156 13 21 20 13 26 -18 14z"/>
<path d="M5945 3089 c-16 -4 -24 -7 -17 -8 6 0 12 -10 12 -21 0 -11 5 -20 10
-20 6 0 10 9 10 19 0 13 8 21 23 23 15 2 18 5 7 9 -8 3 -28 2 -45 -2z"/>
<path d="M6210 3080 c12 -8 12 -10 1 -10 -11 0 -11 -4 3 -18 11 -13 14 -28 10
-50 -4 -21 -3 -32 5 -32 6 0 11 -5 11 -11 0 -5 -4 -7 -10 -4 -5 3 -10 2 -10
-4 0 -5 6 -11 13 -14 6 -2 9 -8 4 -12 -8 -9 -58 14 -70 32 -4 7 -14 10 -22 7
-9 -4 -15 0 -15 9 0 9 -10 19 -22 23 -13 4 -30 15 -39 25 -9 11 -22 19 -28 19
-6 0 -14 7 -17 15 -17 44 -71 -10 -66 -65 5 -41 -29 -49 -71 -17 -55 41 -98
59 -149 61 -56 1 -77 -17 -52 -45 10 -11 12 -19 5 -24 -6 -3 -11 -2 -11 3 0 5
-20 7 -44 6 -29 -2 -49 3 -57 12 -6 8 -16 14 -22 14 -5 0 -15 7 -21 16 -11 14
-23 15 -95 6 -48 -6 -88 -16 -93 -24 -7 -10 -8 -9 -4 5 6 18 -4 21 -41 11 -13
-4 -20 -10 -17 -16 3 -5 12 -4 20 3 12 10 15 10 12 -2 -2 -10 8 -14 40 -14 24
0 40 -4 38 -10 -1 -5 -10 -9 -20 -7 -23 4 -19 -10 9 -31 14 -10 31 -15 38 -11
6 4 9 3 4 -1 -10 -12 22 -45 44 -45 11 0 16 -5 13 -13 -6 -15 88 -107 139
-136 33 -18 40 -19 74 -7 21 7 67 19 103 26 79 15 110 9 400 -75 30 -9 64 -17
75 -19 41 -6 133 -40 224 -83 85 -41 96 -44 119 -32 13 8 29 25 35 39 15 34
48 70 64 70 11 0 12 6 6 23 -4 12 -8 42 -8 66 0 41 -2 44 -29 47 -37 4 -38 5
-41 61 -3 73 -4 76 -19 70 -8 -3 -16 0 -19 6 -7 19 -89 41 -97 26 -10 -16 -38
1 -53 32 -7 13 -23 25 -35 27 -12 2 -22 10 -22 18 0 8 -4 14 -9 14 -15 0 -25
-22 -13 -29 6 -3 13 -18 17 -32 5 -21 2 -27 -14 -32 -12 -3 -19 -2 -16 3 3 4
-6 15 -20 24 -14 9 -25 22 -25 29 0 6 -14 21 -30 32 -17 11 -32 27 -35 35 -3
9 -17 17 -32 18 -22 1 -24 0 -13 -8z"/>
<path d="M5440 3064 c0 -8 5 -12 10 -9 6 3 10 10 10 16 0 5 -4 9 -10 9 -5 0
-10 -7 -10 -16z"/>
<path d="M5270 3045 c-7 -8 -16 -12 -21 -9 -5 3 -9 0 -9 -5 0 -6 10 -11 22
-11 12 0 18 3 15 7 -4 3 -2 12 4 20 6 7 9 13 6 13 -2 0 -10 -7 -17 -15z"/>
<path d="M3460 2640 c8 -5 22 -10 30 -10 13 0 13 1 0 10 -8 5 -22 10 -30 10
-13 0 -13 -1 0 -10z"/>
<path d="M3270 2630 c0 -5 5 -10 10 -10 6 0 10 5 10 10 0 6 -4 10 -10 10 -5 0
-10 -4 -10 -10z"/>
<path d="M4895 2620 c-3 -5 -1 -10 4 -10 6 0 11 5 11 10 0 6 -2 10 -4 10 -3 0
-8 -4 -11 -10z"/>
<path d="M3190 2600 c-8 -5 -12 -12 -9 -15 4 -3 12 1 19 10 14 17 11 19 -10 5z"/>
<path d="M3145 2590 c-3 -5 -1 -10 4 -10 6 0 11 5 11 10 0 6 -2 10 -4 10 -3 0
-8 -4 -11 -10z"/>
<path d="M4904 2589 c-9 -15 1 -21 26 -17 21 3 21 3 1 15 -14 9 -22 9 -27 2z"/>
<path d="M4870 2581 c0 -5 7 -16 15 -25 9 -9 11 -17 5 -21 -5 -3 -10 -1 -10 4
0 6 -7 11 -15 11 -8 0 -15 -9 -15 -19 0 -10 -7 -22 -16 -25 -8 -3 -12 -11 -8
-17 3 -6 3 -14 -2 -18 -20 -14 -38 -69 -40 -126 -2 -33 -5 -73 -8 -90 -3 -16
-8 -49 -10 -73 -3 -23 -10 -51 -15 -61 -6 -10 -8 -21 -4 -24 3 -4 0 -13 -7
-22 -10 -12 -10 -18 0 -30 7 -9 8 -15 2 -15 -12 0 -28 -73 -24 -108 2 -15 -1
-21 -7 -17 -9 5 -17 -30 -12 -58 1 -4 -6 -24 -14 -45 -9 -20 -15 -50 -14 -67
2 -37 -9 -82 -28 -112 -8 -12 -12 -31 -8 -42 3 -10 1 -22 -5 -26 -5 -3 -7 -18
-4 -32 5 -18 3 -24 -5 -19 -7 5 -11 -1 -11 -14 0 -11 -7 -23 -15 -26 -9 -4
-14 -13 -13 -22 2 -9 -12 -26 -30 -38 -21 -14 -28 -24 -20 -28 7 -3 3 -3 -9 0
-16 3 -25 -1 -34 -18 -6 -13 -27 -37 -45 -53 -19 -17 -34 -36 -34 -43 0 -6 -3
-12 -7 -11 -5 1 -19 -2 -32 -7 -23 -7 -23 -8 -5 -15 16 -6 15 -8 -11 -14 -16
-4 -41 -11 -55 -16 -21 -8 -20 -8 10 -4 l35 5 -24 -20 c-13 -11 -19 -20 -15
-20 23 -1 -25 -20 -49 -20 -16 0 -26 -4 -22 -10 7 -12 -18 -40 -37 -40 -10 0
-9 -3 2 -11 12 -8 9 -10 -13 -6 -23 4 -28 0 -34 -22 -4 -14 -6 -34 -5 -44 0
-13 -4 -17 -14 -13 -9 3 -12 1 -9 -4 3 -6 0 -10 -7 -10 -14 0 -44 -34 -37 -43
5 -7 -58 -67 -71 -67 -5 0 -10 -12 -10 -26 0 -14 -4 -23 -9 -19 -6 3 -18 -11
-27 -30 -9 -20 -30 -49 -45 -65 -16 -16 -29 -34 -29 -40 0 -7 -14 -30 -31 -51
-19 -24 -26 -39 -17 -39 8 0 9 -3 3 -8 -5 -4 -10 -14 -10 -22 0 -20 -44 -41
-77 -37 -16 2 -28 0 -28 -5 0 -5 -9 -7 -20 -3 -10 3 -28 1 -39 -4 -12 -7 -22
-7 -25 -2 -7 10 -25 9 -43 -2 -8 -5 -13 -3 -13 5 0 10 -2 10 -9 -1 -6 -10 -10
-10 -16 -1 -4 6 -17 9 -30 6 -25 -6 -44 9 -23 18 7 3 1 3 -15 -1 -16 -3 -34 0
-44 8 -11 10 -17 11 -20 3 -5 -16 -103 34 -103 52 0 17 -17 19 -22 2 -5 -14
-58 34 -58 51 0 6 -7 8 -15 5 -8 -4 -15 -1 -15 7 0 7 -3 9 -7 6 -12 -12 -35
32 -28 54 6 17 4 20 -12 15 -10 -3 -25 -1 -33 5 -12 8 -9 9 10 4 l25 -6 -27
23 c-16 13 -28 29 -28 36 0 7 -7 12 -16 12 -8 0 -12 5 -9 10 10 16 -37 50 -52
38 -10 -8 -13 -5 -13 12 0 16 4 21 16 16 13 -5 15 -2 10 16 -3 13 -6 27 -6 32
0 4 -9 6 -20 3 -16 -4 -18 -2 -10 12 10 20 -5 41 -29 41 -14 0 -14 -1 -1 -10
11 -7 12 -10 2 -10 -8 0 -16 9 -19 19 -3 12 -11 17 -19 14 -8 -3 -14 1 -14 11
0 10 9 16 25 16 32 0 32 14 0 48 -14 15 -23 33 -20 40 2 6 0 12 -5 12 -16 0
-11 -47 5 -54 8 -3 15 -10 15 -16 0 -5 -7 -10 -15 -10 -8 0 -15 5 -15 10 0 6
-7 10 -15 10 -12 0 -12 5 0 39 14 41 11 73 -12 106 -7 11 -13 25 -13 33 0 7
-10 34 -22 60 -12 26 -25 63 -29 82 -5 22 -6 9 -2 -35 5 -65 29 -145 43 -145
4 0 12 -11 18 -25 15 -32 10 -31 -25 1 -15 14 -29 21 -31 15 -2 -6 -11 -11
-20 -11 -13 0 -11 5 8 19 22 18 23 21 10 45 -7 14 -20 26 -28 26 -12 0 -12 3
-2 15 10 12 10 15 -1 15 -11 0 -11 2 1 10 12 8 12 12 2 18 -18 12 -13 105 5
97 12 -4 14 8 8 72 -8 98 -24 191 -35 212 -16 28 -72 212 -99 325 -18 73 -121
208 -175 229 -11 4 -16 13 -12 22 3 10 -1 15 -12 16 -11 0 -13 2 -4 6 10 4 9
8 -5 19 -20 15 -34 18 -32 7 3 -21 -3 -23 -23 -9 -12 9 -31 16 -41 16 -18 0
-18 -1 1 -17 11 -10 23 -28 27 -40 5 -18 2 -23 -13 -23 -10 0 -34 -8 -53 -17
-26 -14 -30 -18 -16 -21 10 -2 26 3 36 12 22 20 31 20 31 1 0 -8 -5 -15 -11
-15 -6 0 -8 -17 -5 -45 2 -25 0 -47 -5 -51 -6 -3 -5 -11 2 -21 11 -12 9 -14
-12 -10 -13 2 -18 2 -11 0 8 -3 11 -11 8 -20 -3 -8 -6 -25 -6 -37 0 -12 -9
-32 -20 -44 -11 -12 -20 -26 -20 -32 0 -5 -4 -10 -8 -10 -5 0 -9 -7 -9 -15 0
-8 5 -15 11 -15 6 0 6 -4 -1 -11 -13 -13 -6 -42 8 -33 5 3 9 1 9 -5 0 -5 -6
-12 -12 -14 -8 -3 -6 -6 5 -6 13 -1 17 7 17 35 0 19 4 33 9 30 14 -9 -5 -75
-28 -95 -27 -23 -26 -29 2 -41 17 -7 18 -9 5 -9 -10 -1 -18 -6 -18 -11 0 -6
-3 -9 -7 -9 -19 3 -33 -2 -33 -12 0 -6 9 -8 20 -4 31 10 45 -5 18 -19 -16 -9
-28 -9 -40 -2 -13 8 -21 7 -30 -3 -11 -12 -10 -13 5 -8 25 9 57 -21 36 -33
-10 -7 -7 -11 14 -19 39 -15 33 -20 -20 -16 -44 4 -46 3 -29 -11 11 -8 24 -14
30 -14 6 0 0 -7 -12 -16 -27 -18 -30 -46 -4 -37 15 6 15 5 3 -10 -7 -9 -11
-28 -9 -41 3 -16 0 -27 -9 -30 -11 -5 -13 0 -9 22 3 15 1 34 -5 42 -8 12 -9
10 -4 -8 4 -14 1 -28 -9 -38 -9 -9 -14 -19 -11 -24 3 -5 2 -10 -2 -13 -5 -2
-3 -2 4 -1 7 2 15 -1 18 -6 3 -5 -5 -10 -17 -12 -16 -2 -24 -12 -29 -35 -3
-17 -19 -43 -34 -57 l-28 -26 24 -19 c21 -16 22 -22 11 -45 -10 -22 -17 -25
-39 -21 l-28 6 22 -17 c23 -17 34 -72 12 -58 -15 9 -29 -15 -29 -52 0 -22 7
-37 23 -47 16 -12 18 -16 6 -16 -13 -1 -15 -9 -8 -49 9 -60 1 -105 -17 -98
-19 7 -18 -18 1 -55 14 -27 14 -33 0 -63 -9 -18 -15 -39 -13 -47 2 -8 -3 -13
-9 -11 -16 3 -17 -10 -1 -26 9 -9 8 -12 -4 -12 -19 0 -44 -28 -34 -37 4 -4 11
-1 15 6 6 9 11 10 15 2 13 -21 24 -11 54 47 16 31 37 71 46 87 8 17 37 75 62
130 46 96 84 158 112 180 7 6 14 22 16 37 3 29 22 58 39 58 5 0 3 -8 -6 -18
-22 -24 -21 -32 1 -32 14 -1 14 -3 -6 -20 -19 -16 -21 -22 -10 -44 10 -23 8
-31 -10 -56 -12 -16 -22 -36 -22 -45 0 -8 -4 -15 -10 -15 -5 0 -10 -7 -10 -15
0 -8 -6 -15 -13 -15 -8 0 -19 -23 -27 -56 -8 -31 -20 -58 -27 -61 -7 -3 -10
-9 -7 -15 3 -5 -6 -20 -20 -33 -14 -13 -26 -31 -26 -40 0 -8 -9 -24 -19 -34
-13 -13 -16 -22 -9 -29 7 -7 3 -12 -10 -16 -12 -4 -23 -19 -27 -36 -4 -17 -11
-30 -16 -30 -5 0 -9 -6 -9 -13 0 -7 -13 -26 -29 -43 -15 -16 -31 -39 -35 -51
-4 -13 -14 -23 -21 -23 -8 0 -17 -11 -21 -25 -3 -14 -10 -22 -15 -19 -5 3 -9
-4 -9 -15 0 -12 -4 -21 -10 -21 -5 0 -10 -7 -10 -15 0 -8 5 -15 10 -15 6 0 10
6 10 13 0 7 9 19 19 27 11 7 18 17 15 22 -3 4 2 11 10 14 9 3 23 21 32 39 8
18 24 35 36 38 15 4 18 11 13 27 -5 15 -3 21 7 19 26 -3 37 1 33 14 -5 14 63
63 82 59 8 -2 10 3 7 13 -9 23 16 67 34 60 10 -4 13 0 9 15 -3 11 0 20 6 20
12 1 54 78 49 92 -1 4 14 21 32 39 21 19 32 38 29 47 -7 18 23 43 42 36 9 -4
12 1 8 15 -3 13 2 24 16 33 12 7 22 24 22 38 1 21 2 22 6 5 3 -11 10 -23 16
-27 12 -7 20 -118 12 -166 -5 -27 -10 -32 -28 -30 -17 2 -23 -4 -30 -34 -6
-24 -15 -38 -30 -42 -29 -7 -34 1 -11 18 19 14 19 15 -1 11 -11 -2 -23 -4 -27
-4 -3 -1 -4 -10 -1 -22 5 -18 11 -20 39 -14 19 3 46 17 61 31 24 22 28 23 48
10 20 -13 24 -13 40 2 17 16 17 15 12 -13 -4 -16 -4 -24 -1 -17 3 6 10 10 15
6 5 -3 9 7 9 22 0 22 3 25 12 16 10 -10 10 -17 0 -32 -17 -28 -16 -53 3 -46 8
3 15 0 16 -7 4 -43 5 -189 2 -176 -3 13 -10 15 -30 10 -15 -4 -29 -13 -31 -21
-3 -9 2 -11 17 -7 35 9 24 -11 -18 -33 -22 -10 -41 -25 -43 -31 -2 -7 -23 -12
-52 -12 -26 1 -59 -5 -74 -13 -31 -16 -56 -18 -47 -4 13 20 -17 9 -39 -15 -25
-27 -42 -32 -48 -14 -4 13 -47 -7 -61 -28 -4 -7 -14 -13 -21 -13 -8 0 -16 -7
-20 -15 -3 -8 -12 -15 -21 -15 -8 0 -15 -4 -15 -10 0 -5 5 -10 12 -10 6 0 3
-9 -7 -20 -10 -11 -15 -20 -10 -20 4 0 3 -6 -1 -12 -13 -18 -10 -53 3 -51 6 1
14 -5 17 -13 4 -12 2 -15 -9 -10 -17 6 -19 -2 -5 -24 5 -8 10 -10 11 -5 0 6 4
2 8 -8 6 -17 9 -16 35 10 19 18 30 24 33 16 3 -9 10 -10 23 -3 12 6 35 4 74
-8 56 -17 66 -28 44 -50 -9 -9 -7 -12 11 -12 15 0 20 4 15 12 -4 7 7 0 25 -17
27 -25 29 -30 15 -35 -16 -6 -16 -7 -1 -13 11 -4 14 -12 10 -24 -6 -16 -5 -16
10 -4 14 11 18 11 23 -3 6 -14 67 -16 656 -16 686 0 678 -1 678 44 0 8 5 18
10 21 16 10 12 25 -5 19 -8 -4 -15 -1 -15 5 0 6 5 11 11 11 5 0 9 8 7 18 -1 9
1 23 5 30 5 7 9 25 9 41 1 16 12 42 24 57 26 29 30 44 14 44 -5 0 -10 9 -10
20 0 11 4 20 9 20 5 0 11 18 15 40 3 22 15 48 26 57 11 10 20 22 20 28 0 5 -4
5 -8 -2 -5 -8 -13 -9 -22 -3 -11 7 -8 11 13 21 14 6 24 16 21 21 -3 4 -10 6
-15 3 -5 -4 -9 3 -9 14 0 15 4 19 18 14 14 -6 15 -4 5 8 -10 12 -10 18 -1 27
7 7 9 12 5 12 -4 0 3 18 14 40 12 22 26 40 31 40 6 0 7 7 4 15 -4 11 3 19 19
25 14 5 25 14 25 20 0 5 7 10 16 10 10 0 14 7 12 22 -2 18 2 22 22 23 14 0 30
-7 37 -15 10 -13 12 -11 13 13 0 15 5 27 10 27 6 0 10 9 10 21 0 11 4 18 9 15
5 -3 19 3 32 13 13 10 30 16 37 14 6 -3 12 3 12 12 0 14 3 15 15 5 20 -17 38
-4 25 20 -14 26 -2 52 21 45 15 -5 19 -1 19 20 0 18 6 29 19 32 11 3 17 11 15
18 -3 7 3 15 13 19 40 14 73 38 73 52 0 7 9 14 20 14 14 0 20 7 20 21 0 11 5
17 10 14 14 -8 13 -58 -2 -73 -8 -8 -8 -15 1 -26 10 -12 7 -19 -18 -37 -20
-15 -27 -26 -21 -34 5 -6 5 -16 0 -25 -17 -27 -11 -32 32 -25 45 8 80 40 72
66 -2 8 2 36 10 62 8 26 12 47 8 47 -3 0 2 8 12 19 9 10 14 24 11 32 -6 17 31
67 42 56 4 -5 1 -12 -7 -17 -13 -9 -13 -10 0 -10 12 0 13 -2 1 -9 -10 -6 -10
-10 -1 -13 7 -2 18 -45 26 -103 24 -174 29 -201 44 -245 16 -46 52 -121 67
-140 6 -8 13 -19 14 -25 4 -20 24 -45 35 -45 7 0 10 -8 7 -21 -4 -15 0 -22 16
-26 16 -4 19 -9 11 -18 -8 -9 -8 -15 0 -20 17 -10 24 24 8 43 -15 17 -30 48
-33 67 0 6 -6 9 -13 7 -16 -3 -15 15 1 22 9 5 9 7 -1 12 -10 5 -10 9 0 22 11
13 10 15 -4 10 -21 -8 -31 2 -18 17 7 8 5 21 -5 41 -8 16 -15 35 -15 42 0 6
-5 12 -11 12 -6 0 -9 9 -6 20 3 11 2 20 -3 20 -4 0 -11 15 -15 33 -9 38 -9 35
-1 70 5 20 3 27 -9 27 -11 0 -14 9 -11 40 2 22 0 40 -5 40 -15 0 -10 32 7 45
12 9 14 16 7 31 -5 10 -9 37 -7 58 2 22 -2 48 -7 59 -8 13 -8 22 0 30 9 9 13
6 17 -11 4 -12 10 -22 14 -22 4 0 13 -26 20 -57 48 -219 70 -300 108 -398 39
-100 66 -148 76 -137 5 4 6 0 5 -8 -4 -19 21 -109 32 -116 5 -3 9 4 9 15 0 10
3 27 7 37 4 11 3 15 -4 11 -6 -4 -13 0 -16 7 -3 8 -1 17 6 20 9 3 9 7 1 13
-17 12 -26 50 -14 58 14 9 13 28 -2 22 -19 -6 -51 63 -37 80 9 9 8 13 0 13 -6
0 -11 7 -11 15 0 8 -6 15 -12 15 -10 0 -10 2 -2 8 11 7 18 44 15 87 -1 14 -4
16 -9 8 -5 -7 -7 -26 -6 -43 1 -16 -2 -30 -7 -30 -16 0 -14 87 2 107 7 7 6 14
-1 18 -17 11 -11 42 10 48 25 6 27 37 3 38 -13 0 -11 3 7 10 l25 11 -30 13
c-25 11 -26 14 -9 14 11 1 23 4 27 7 10 10 -22 64 -38 64 -8 0 -15 4 -15 9 0
11 57 41 79 41 13 1 12 4 -4 18 -16 13 -21 31 -23 78 -2 60 -2 61 31 79 19 10
45 16 59 13 24 -4 25 -3 17 24 -5 19 -3 42 6 67 8 23 10 43 4 52 -6 10 -9 4
-9 -18 0 -18 -4 -33 -10 -33 -5 0 -9 12 -9 28 3 49 9 62 34 62 19 0 26 7 31
28 3 15 10 42 14 61 8 28 6 34 -11 38 -24 7 -25 31 -1 49 10 8 12 13 4 14 -21
0 10 40 32 40 13 0 17 5 13 20 -3 11 -1 20 4 20 5 0 9 5 9 10 0 6 -6 10 -12 9
-34 -4 -48 2 -48 21 0 22 16 27 23 8 2 -7 8 -10 12 -6 4 4 2 15 -5 24 -12 13
-11 17 1 24 8 5 14 21 14 35 1 28 -10 33 -19 10 -7 -19 -46 -20 -46 -1 0 8 7
17 16 20 9 4 14 13 10 21 -4 12 0 14 19 9 15 -4 25 -2 25 5 0 6 -6 11 -13 11
-9 0 -14 16 -15 50 -1 44 -5 55 -36 83 -24 23 -33 40 -30 53 5 18 -8 27 -69
48 -27 9 -10 27 19 20 15 -4 24 -2 24 6 0 6 -9 14 -20 17 -11 3 -20 12 -20 19
0 8 -4 14 -10 14 -5 0 -10 7 -10 15 0 9 -9 15 -25 15 -14 0 -25 5 -25 10 0 6
7 10 15 10 8 0 15 5 15 10 0 6 -5 10 -10 10 -6 0 -8 11 -4 25 5 19 2 25 -10
25 -20 0 -21 17 -2 22 11 2 7 12 -15 36 -16 18 -29 28 -29 23z m66 -256 c18
-15 18 -15 -5 -13 -14 2 -26 9 -29 16 -5 17 10 15 34 -3z m164 -175 c0 -5 -9
-10 -19 -10 -11 0 -23 5 -26 10 -4 6 5 10 19 10 14 0 26 -4 26 -10z m-2750
-185 c0 -8 -4 -15 -9 -15 -13 0 -22 16 -14 24 11 11 23 6 23 -9z m2679 6 c9
-6 10 -11 2 -15 -13 -8 -31 1 -31 15 0 11 11 11 29 0z m-81 -37 c30 -8 28 -17
-6 -30 -23 -9 -33 -8 -48 4 -18 13 -18 14 3 7 18 -5 22 -3 17 9 -7 17 -1 19
34 10z m-2178 -204 c0 -5 -2 -10 -4 -10 -3 0 -8 5 -11 10 -3 6 -1 10 4 10 6 0
11 -4 11 -10z m32 -139 c2 -17 1 -28 -4 -25 -8 5 -12 54 -4 54 2 0 6 -13 8
-29z m-5 -73 c-3 -8 -6 -5 -6 6 -1 11 2 17 5 13 3 -3 4 -12 1 -19z m1600 -340
c-3 -8 -6 -5 -6 6 -1 11 2 17 5 13 3 -3 4 -12 1 -19z m-1501 -54 c-4 -9 -9
-15 -11 -12 -3 3 -3 13 1 22 4 9 9 15 11 12 3 -3 3 -13 -1 -22z m-296 -291 c0
-22 -2 -25 -10 -13 -13 20 -13 40 0 40 6 0 10 -12 10 -27z m-30 -7 c0 -3 -4
-8 -10 -11 -5 -3 -10 -1 -10 4 0 6 5 11 10 11 6 0 10 -2 10 -4z"/>
<path d="M2400 2420 c0 -5 5 -10 11 -10 5 0 7 5 4 10 -3 6 -8 10 -11 10 -2 0
-4 -4 -4 -10z"/>
<path d="M6768 2405 c-15 -14 -31 -25 -36 -25 -8 0 -24 -11 -69 -50 -7 -6 -13
-8 -13 -4 0 4 -9 -1 -20 -11 -34 -31 -22 -36 22 -9 47 30 45 28 111 84 27 22
45 40 40 40 -5 0 -20 -11 -35 -25z"/>
<path d="M5080 2220 c0 -5 5 -10 10 -10 6 0 10 5 10 10 0 6 -4 10 -10 10 -5 0
-10 -4 -10 -10z"/>
<path d="M2330 2170 c19 -13 30 -13 30 0 0 6 -10 10 -22 10 -19 0 -20 -2 -8
-10z"/>
<path d="M5129 2171 c9 -6 10 -11 2 -15 -6 -4 -11 -11 -11 -17 0 -12 27 -12
35 1 8 13 -12 40 -29 40 -6 0 -5 -4 3 -9z"/>
<path d="M2110 2149 c0 -5 5 -7 10 -4 6 3 10 8 10 11 0 2 -4 4 -10 4 -5 0 -10
-5 -10 -11z"/>
<path d="M6538 2148 c-21 -6 -38 -14 -38 -19 0 -4 -7 -6 -15 -3 -9 4 -15 0
-15 -10 0 -10 -8 -16 -21 -16 -19 0 -49 -21 -49 -34 0 -9 28 -7 32 2 2 4 29
20 62 35 52 25 69 28 150 26 50 -1 111 -6 135 -11 24 -5 46 -6 49 -4 9 9 -51
28 -98 31 -25 2 -45 4 -45 5 0 8 -117 6 -147 -2z"/>
<path d="M2320 2140 c0 -5 4 -10 9 -10 6 0 13 5 16 10 3 6 -1 10 -9 10 -9 0
-16 -4 -16 -10z"/>
<path d="M2138 2123 c7 -3 16 -2 19 1 4 3 -2 6 -13 5 -11 0 -14 -3 -6 -6z"/>
<path d="M6870 2108 c0 -4 6 -8 13 -8 6 0 23 -3 37 -6 24 -5 24 -5 5 7 -24 15
-55 19 -55 7z"/>
<path d="M6976 2084 c-9 -23 -7 -44 3 -44 11 0 21 49 11 55 -4 3 -11 -2 -14
-11z"/>
<path d="M1908 2056 c-14 -10 -15 -15 -5 -26 9 -10 9 -11 0 -6 -17 9 -133 -97
-133 -122 0 -7 -7 -15 -15 -18 -11 -5 -12 -11 -5 -24 12 -22 13 -40 2 -22 -12
17 -36 6 -52 -24 -18 -33 -5 -42 20 -13 l20 24 -17 -34 c-10 -19 -26 -42 -35
-53 -10 -10 -18 -27 -18 -37 0 -11 -6 -21 -12 -24 -10 -3 -10 -9 -2 -23 12
-22 7 -57 -7 -49 -5 4 -9 1 -9 -5 0 -6 -7 -18 -16 -27 -11 -11 -12 -19 -5 -26
19 -19 13 -81 -8 -94 -21 -13 -18 -54 5 -74 19 -15 54 -1 64 27 10 26 36 24
38 -4 2 -40 -10 -72 -27 -72 -14 0 -17 -6 -14 -23 3 -13 -4 -32 -16 -46 -23
-26 -27 -41 -11 -41 6 0 10 -5 10 -11 0 -6 -9 -9 -20 -6 -12 3 -17 1 -14 -5 3
-5 -2 -18 -11 -28 -10 -11 -15 -26 -12 -34 7 -18 -9 -31 -19 -15 -4 8 -9 7
-15 -2 -13 -21 -11 -29 7 -29 8 0 12 -5 9 -10 -4 -6 -11 -8 -16 -5 -5 3 -6 -1
-3 -10 5 -11 -3 -18 -25 -26 -32 -11 -38 -37 -8 -31 8 1 18 -2 22 -8 3 -6 -4
-10 -16 -10 -18 0 -20 -3 -11 -12 16 -16 15 -28 -3 -28 -16 0 -38 -34 -28 -43
3 -3 -9 -20 -26 -37 l-31 -32 22 -18 c19 -15 20 -20 10 -33 -9 -11 -10 -17 -2
-22 6 -4 9 -13 6 -21 -3 -8 0 -11 10 -7 7 3 14 2 14 -2 0 -11 -28 -35 -40 -35
-7 0 -10 -7 -7 -14 4 -11 1 -13 -11 -9 -9 3 -14 2 -9 -2 12 -14 -22 -43 -44
-38 -13 4 -19 0 -19 -12 0 -11 -5 -15 -14 -12 -8 3 -20 -1 -28 -10 -11 -14
-10 -15 12 -10 22 6 22 5 -2 -5 -16 -7 -28 -15 -28 -20 0 -4 -17 -15 -37 -23
-64 -27 -67 -55 -5 -55 40 1 84 24 60 33 -7 2 -10 8 -5 12 4 5 13 3 19 -3 17
-17 28 -15 21 5 -4 10 -2 14 4 10 6 -4 21 2 33 13 13 11 28 20 35 20 6 0 32
13 58 30 26 16 54 27 62 24 10 -4 15 0 15 15 0 12 6 21 14 21 8 0 17 6 19 13
4 9 6 9 6 0 1 -7 5 -13 10 -13 5 0 7 9 4 20 -3 13 0 20 8 20 8 0 23 18 33 40
11 22 25 40 31 40 7 0 11 10 10 23 -1 12 9 33 22 46 13 13 23 19 23 12 0 -7 6
-19 13 -26 34 -39 39 -48 33 -67 -3 -14 1 -26 12 -35 18 -13 16 -16 -28 -43
-8 -4 -11 -12 -7 -16 5 -5 12 -2 16 5 6 9 11 10 15 2 10 -15 -2 -31 -18 -25
-12 5 -12 -2 -4 -37 9 -35 9 -44 -5 -54 -8 -6 -17 -24 -19 -40 -3 -24 0 -28
25 -29 33 -2 35 11 5 24 -23 9 -23 9 2 10 24 1 60 21 60 34 0 3 -6 5 -12 3
-16 -3 -12 44 4 54 9 6 7 13 -6 28 -11 12 -15 21 -10 21 5 0 15 10 23 21 11
19 11 21 -4 16 -10 -4 -14 -3 -9 4 23 39 2 255 -32 320 -7 14 -11 29 -7 33 3
3 1 16 -5 29 -24 46 -35 83 -33 109 2 16 -5 35 -14 45 -18 17 -18 16 2 161 5
35 3 42 -11 42 -19 0 -19 1 -4 54 16 57 21 61 66 43 36 -14 39 -14 39 1 0 22
-17 33 -42 26 -16 -4 -17 -3 -5 5 8 6 23 11 33 11 13 0 17 8 17 35 0 19 -4 35
-9 35 -5 0 -11 9 -14 20 -3 11 -12 20 -20 20 -12 0 -14 6 -7 28 14 45 56 145
78 187 23 41 32 86 12 55 -7 -11 -10 -12 -10 -2 0 8 9 16 20 19 19 5 22 9 24
36 1 6 8 17 16 24 20 17 0 16 -22 -1z m-78 -126 c0 -5 -5 -10 -11 -10 -5 0 -7
5 -4 10 3 6 8 10 11 10 2 0 4 -4 4 -10z"/>
<path d="M2138 2063 c-10 -2 -18 -11 -18 -19 0 -19 7 -18 32 6 22 20 19 22
-14 13z"/>
<path d="M5170 2030 c0 -5 4 -10 9 -10 6 0 13 5 16 10 3 6 -1 10 -9 10 -9 0
-16 -4 -16 -10z"/>
<path d="M6320 2032 c0 -5 -11 -22 -25 -38 -29 -34 -30 -40 -10 -48 10 -4 15
1 15 15 0 12 8 23 20 26 10 3 22 13 25 24 4 12 12 16 22 12 11 -4 14 -2 9 5
-8 14 -56 16 -56 4z"/>
<path d="M6647 2028 c-14 -7 -16 -13 -6 -24 9 -12 6 -14 -20 -14 -35 0 -39 -7
-13 -26 11 -9 13 -13 4 -14 -14 0 -62 -48 -62 -61 0 -5 5 -9 10 -9 6 0 10 7
10 15 0 11 5 12 26 5 37 -14 39 -13 18 11 -19 22 -19 22 5 14 20 -6 23 -4 17
10 -5 13 -2 16 9 11 11 -4 17 2 21 23 5 22 10 27 25 24 13 -4 19 0 19 13 0 9
-3 14 -7 11 -3 -4 -13 -1 -22 7 -12 11 -21 12 -34 4z"/>
<path d="M2010 2019 c0 -5 5 -7 10 -4 6 3 10 8 10 11 0 2 -4 4 -10 4 -5 0 -10
-5 -10 -11z"/>
<path d="M6240 1935 c0 -8 2 -15 4 -15 2 0 11 -3 20 -6 23 -9 20 13 -4 26 -16
9 -20 8 -20 -5z"/>
<path d="M2105 1910 c-3 -5 -15 -10 -26 -10 -16 0 -18 -5 -13 -27 9 -36 14
-42 14 -16 0 11 10 25 25 31 14 6 25 16 25 22 0 13 -17 13 -25 0z"/>
<path d="M6211 1884 c-12 -15 -21 -32 -21 -38 0 -6 7 -2 16 9 8 11 21 25 30
32 9 6 11 14 5 17 -5 3 -19 -6 -30 -20z"/>
<path d="M6534 1835 c22 -16 22 -16 -17 -33 -37 -16 -56 -15 -34 2 10 8 15 16
10 18 -4 3 -16 -3 -25 -14 -11 -11 -13 -18 -6 -18 9 0 9 -3 0 -12 -7 -7 -12
-24 -12 -39 0 -30 -13 -43 -52 -53 -26 -6 -35 -24 -29 -58 1 -7 -14 -12 -31
-9 -4 0 -10 -8 -13 -19 -4 -11 -10 -20 -15 -20 -5 0 -25 -16 -46 -35 -20 -19
-41 -35 -45 -35 -5 0 -9 -9 -9 -19 0 -12 -11 -23 -31 -30 -17 -6 -33 -20 -36
-31 -6 -23 -23 -27 -23 -5 0 17 -9 19 -29 6 -12 -8 -12 -12 -2 -25 11 -13 11
-19 1 -31 -10 -12 -13 -57 -12 -168 1 -174 9 -257 28 -302 10 -25 10 -46 2
-103 -7 -40 -15 -72 -20 -72 -4 0 -8 -11 -8 -25 0 -18 -4 -23 -16 -18 -13 5
-15 0 -12 -26 2 -20 -3 -36 -12 -42 -11 -8 -9 -9 10 -3 14 4 35 17 47 30 13
14 33 24 50 24 20 0 24 -3 14 -9 -10 -6 -12 -19 -7 -44 5 -29 3 -35 -12 -39
-21 -6 -35 -54 -18 -63 8 -3 7 -7 -1 -11 -7 -3 -13 -12 -13 -19 0 -7 -6 -16
-12 -18 -10 -4 -10 -8 1 -15 11 -8 11 -14 -3 -33 -9 -13 -16 -19 -16 -14 0 5
-15 -7 -33 -27 -17 -19 -42 -38 -55 -42 -12 -4 -22 -11 -22 -16 0 -5 -12 -15
-27 -23 -16 -7 -27 -18 -26 -25 2 -6 -3 -9 -11 -6 -8 3 -24 -5 -36 -18 -13
-13 -19 -17 -15 -9 4 7 -16 -2 -45 -21 -60 -38 -72 -57 -42 -65 11 -3 26 -18
32 -33 7 -16 18 -31 25 -34 8 -3 3 12 -11 37 -30 53 -30 55 2 49 19 -3 25 -1
20 7 -4 7 0 11 12 11 12 0 24 -11 32 -29 19 -47 8 -58 -24 -25 l-28 29 17 -35
c10 -19 18 -55 19 -80 l2 -45 134 0 134 0 23 115 c32 163 32 162 35 198 1 17
5 32 8 32 3 0 6 23 8 51 2 28 7 61 12 73 12 32 15 109 5 125 -4 8 -9 47 -10
87 -1 41 -5 77 -8 81 -4 3 -7 1 -7 -5 0 -7 -4 -12 -10 -12 -16 0 -11 19 11 41
16 16 20 29 16 56 -5 31 -4 33 15 27 18 -5 20 -3 13 12 -21 52 -26 97 -12 113
8 9 17 28 21 44 4 16 13 27 24 28 12 0 11 3 -6 10 -29 11 -19 32 11 24 20 -6
21 -5 5 8 -24 19 -23 24 7 31 14 4 25 11 25 17 0 7 -11 9 -25 7 -17 -4 -25 -1
-25 8 0 12 24 19 51 16 4 -1 5 12 3 28 -2 19 2 30 14 35 14 5 14 7 2 15 -11 7
-9 11 13 19 33 13 36 25 5 15 -23 -7 -23 -6 -5 14 11 11 16 26 12 31 -4 7 4
11 18 11 29 0 56 25 35 33 -10 3 -9 8 3 23 9 10 14 25 12 32 -3 7 3 22 13 33
10 11 18 32 19 47 0 15 6 26 12 25 6 -1 9 6 6 17 -3 11 0 20 6 20 5 0 8 7 5
15 -4 8 -1 15 6 15 8 0 9 13 5 44 -6 35 -4 44 10 50 9 3 13 11 9 17 -3 6 0 15
7 20 12 8 12 11 -1 19 -13 9 -13 10 0 10 9 0 24 9 33 21 22 25 8 49 -27 49
-21 -1 -21 -1 -2 -15z m-74 -255 c0 -5 -4 -10 -10 -10 -5 0 -10 5 -10 10 0 6
5 10 10 10 6 0 10 -4 10 -10z m-339 -1245 c5 4 6 0 3 -8 -3 -8 -1 -18 5 -22
13 -7 15 -25 3 -25 -12 0 -42 56 -34 64 3 4 8 2 10 -3 2 -6 8 -9 13 -6z m-23
-40 c17 -36 15 -50 -3 -35 -8 7 -15 19 -15 26 0 8 -4 14 -10 14 -14 0 -12 -12
5 -37 19 -27 0 -43 -20 -17 -12 17 -13 16 -8 -11 l4 -30 -25 30 c-34 39 -33
52 4 60 17 4 30 11 30 16 0 19 27 8 38 -16z m-84 -64 c20 -34 13 -58 -8 -28
-18 24 -29 21 -16 -4 17 -32 4 -34 -23 -5 -33 36 -41 65 -16 59 11 -3 19 0 19
7 0 20 24 5 44 -29z m-62 -37 c13 -27 4 -44 -14 -26 -7 7 -16 12 -22 12 -6 0
-5 -5 2 -12 7 -7 12 -18 12 -25 0 -24 -36 3 -50 37 -16 38 -7 49 20 25 21 -19
21 -19 11 8 -10 26 -9 27 10 17 11 -6 25 -22 31 -36z"/>
<path d="M6162 1812 c-9 -19 -9 -29 -1 -36 9 -8 10 -7 5 2 -4 6 -3 12 2 12 12
0 23 38 13 44 -3 2 -12 -7 -19 -22z"/>
<path d="M2070 1805 c0 -8 -9 -15 -21 -15 -11 0 -17 5 -14 10 3 6 1 10 -4 10
-6 0 -11 -16 -11 -35 0 -19 -4 -35 -10 -35 -5 0 -10 -5 -10 -12 0 -6 9 -3 20
7 12 10 18 25 16 32 -6 15 10 18 19 3 10 -15 28 -12 22 4 -3 8 0 16 8 18 11 2
11 5 -1 16 -12 11 -14 10 -14 -3z"/>
<path d="M7060 1800 c-1 -8 -2 -21 -1 -27 1 -7 -5 -13 -14 -13 -8 0 -15 -7
-15 -15 0 -8 5 -15 10 -15 6 0 10 -4 10 -10 0 -5 -6 -7 -12 -5 -8 3 -21 -13
-32 -38 -11 -23 -28 -51 -37 -62 -10 -11 -18 -22 -18 -25 0 -11 -13 -46 -27
-73 -8 -15 -13 -31 -10 -35 3 -5 -4 -15 -15 -22 -19 -15 -28 -36 -9 -25 16 10
12 -12 -5 -29 -8 -8 -15 -26 -15 -40 0 -14 -4 -28 -10 -31 -5 -3 -10 -17 -10
-30 0 -13 -5 -27 -11 -31 -6 -3 -9 -14 -6 -23 2 -10 -2 -26 -9 -36 -8 -10 -14
-29 -14 -42 0 -13 -5 -23 -12 -23 -6 0 -8 -3 -5 -6 3 -4 0 -16 -8 -28 -8 -11
-16 -34 -16 -51 -1 -17 -3 -22 -6 -12 -8 32 -22 7 -16 -30 4 -24 3 -34 -5 -30
-6 5 -8 0 -5 -13 3 -12 -2 -29 -12 -40 -9 -10 -14 -23 -11 -28 3 -6 -1 -12 -9
-16 -8 -3 -15 -10 -15 -15 0 -6 7 -8 15 -5 17 7 21 -11 4 -21 -6 -4 -8 -13 -5
-21 3 -8 -1 -14 -8 -14 -10 0 -12 -19 -9 -87 2 -49 6 -98 8 -110 3 -12 1 -25
-5 -28 -5 -3 -7 -23 -4 -43 6 -45 11 -96 17 -185 3 -37 8 -71 11 -74 3 -4 6
-20 6 -37 0 -17 6 -42 13 -56 18 -34 39 -119 32 -129 -4 -8 16 -21 31 -21 7 0
-8 54 -18 67 -6 7 -7 25 -3 40 l8 28 7 -25 c8 -25 9 -15 14 180 1 42 5 81 9
87 4 6 2 13 -4 15 -12 4 -12 2 -4 208 4 102 11 165 21 184 8 16 15 41 15 55 1
20 2 21 6 6 2 -11 6 -30 9 -43 3 -15 9 -20 17 -15 7 4 5 -1 -3 -12 -10 -11
-15 -42 -16 -84 -2 -137 -4 -162 -13 -156 -6 3 -7 -26 -3 -72 3 -43 6 -97 7
-120 0 -24 4 -43 8 -43 5 0 5 -5 2 -11 -11 -17 -13 -59 -4 -65 5 -3 4 -14 -1
-25 -6 -11 -8 -24 -4 -31 4 -6 8 -45 10 -87 2 -42 5 -85 8 -96 2 -11 5 -24 5
-28 1 -4 43 -6 94 -5 92 3 92 3 89 28 -1 14 -5 54 -8 90 -3 36 -11 68 -17 72
-9 6 -9 8 -1 8 14 0 28 51 17 59 -28 21 -46 111 -22 111 6 0 8 9 4 20 -4 12
-2 20 5 20 8 0 10 9 6 27 -4 16 -11 55 -17 87 -5 33 -15 64 -22 68 -9 6 -9 8
1 8 15 0 16 25 0 50 -10 16 -10 24 0 40 8 13 9 20 1 20 -6 0 -8 8 -4 20 4 12
2 20 -5 20 -7 0 -8 6 -1 18 5 10 7 44 4 76 -4 41 -2 61 7 66 9 6 9 13 1 28 -8
15 -7 21 4 25 15 6 17 47 2 47 -5 0 -6 10 -2 23 3 12 8 54 10 94 2 39 11 88
19 108 9 21 16 46 16 56 0 11 5 16 13 14 9 -4 12 13 12 66 0 50 4 73 13 77 8
2 12 13 9 23 -3 12 0 16 9 12 10 -4 14 4 14 31 0 23 5 39 15 42 12 5 15 29 15
130 0 104 -2 124 -15 124 -8 0 -15 -7 -15 -17 0 -9 -3 -13 -7 -10 -3 4 -13 1
-21 -6 -13 -10 -15 -9 -9 6 4 10 3 16 -2 12 -5 -3 -12 1 -14 7 -4 9 -6 9 -7
-2z m-194 -784 c20 -21 17 -28 -6 -14 -11 7 -20 16 -20 20 0 12 10 9 26 -6z
m159 -576 c3 -5 1 -10 -4 -10 -6 0 -11 5 -11 10 0 6 2 10 4 10 3 0 8 -4 11
-10z"/>
<path d="M2105 1781 c-6 -11 9 -23 19 -14 9 9 7 23 -3 23 -6 0 -12 -4 -16 -9z"/>
<path d="M1665 1770 c-3 -5 -1 -10 4 -10 6 0 11 5 11 10 0 6 -2 10 -4 10 -3 0
-8 -4 -11 -10z"/>
<path d="M4158 1738 c-19 -19 -13 -24 11 -9 7 5 12 13 10 18 -2 5 -12 1 -21
-9z"/>
<path d="M2062 1734 c-25 -17 -28 -35 -10 -63 16 -27 -4 -50 -37 -43 -15 2
-25 0 -25 -7 0 -6 6 -11 13 -11 8 0 7 -3 -3 -9 -8 -6 -19 -7 -25 -3 -5 3 -4
-1 3 -10 11 -14 10 -18 -7 -28 -19 -9 -21 -8 -21 15 0 32 -16 33 -22 0 -3 -14
-1 -25 3 -25 19 0 8 -17 -18 -28 -27 -11 -27 -12 10 -7 27 3 37 0 37 -11 0 -8
-3 -13 -8 -11 -4 1 -9 -2 -12 -7 -3 -5 6 -11 20 -13 13 -2 29 -8 34 -13 6 -6
20 -10 33 -10 17 0 21 -4 16 -16 -4 -12 -2 -15 8 -12 8 3 18 21 24 40 5 20 13
40 18 44 4 4 7 16 7 26 0 11 7 26 15 34 16 17 20 44 6 44 -5 0 -11 -7 -15 -15
-3 -8 -12 -12 -21 -9 -8 3 -12 10 -9 15 3 5 10 7 15 4 5 -4 9 3 9 14 0 12 5
21 11 21 5 0 7 -4 4 -10 -3 -5 -1 -10 5 -10 6 0 10 10 8 23 -2 14 -9 21 -21
21 -18 -2 -25 25 -7 27 6 1 15 3 20 4 6 1 16 3 23 4 7 1 6 5 -5 12 -10 5 -15
16 -12 24 8 20 -35 20 -64 -1z m-57 -204 c3 -5 -1 -10 -10 -10 -9 0 -13 5 -10
10 3 6 8 10 10 10 2 0 7 -4 10 -10z"/>
<path d="M743 1718 c-32 -10 -42 -30 -43 -78 -1 -35 -22 -59 -57 -63 -16 -2
-33 -6 -38 -9 -6 -3 -99 -5 -207 -4 -109 0 -198 -2 -198 -6 0 -4 -24 -5 -53
-3 -37 3 -54 0 -55 -8 -8 -78 -23 -222 -27 -257 -3 -25 -7 -87 -10 -139 -2
-52 -9 -99 -14 -104 -6 -6 -11 -21 -11 -33 0 -25 26 -32 105 -28 28 1 134 2
236 3 l187 1 13 33 c17 43 82 131 142 192 27 28 58 69 69 91 20 44 75 99 148
150 55 38 439 227 498 245 23 7 39 16 35 19 -10 9 -84 0 -79 -9 6 -9 -37 -7
-52 3 -7 4 -72 7 -144 7 -73 -1 -140 0 -148 0 -168 7 -231 6 -235 -2 -4 -5
-14 -9 -23 -8 -14 0 -13 2 3 9 28 12 -2 10 -42 -2z"/>
<path d="M6120 1719 c0 -5 5 -7 10 -4 6 3 10 8 10 11 0 2 -4 4 -10 4 -5 0 -10
-5 -10 -11z"/>
<path d="M1990 1680 c-9 -16 -8 -22 4 -26 9 -3 21 -4 28 -1 8 3 6 6 -5 6 -14
1 -17 6 -12 21 8 26 -1 26 -15 0z"/>
<path d="M4045 1680 c-3 -5 -1 -10 4 -10 6 0 11 5 11 10 0 6 -2 10 -4 10 -3 0
-8 -4 -11 -10z"/>
<path d="M6521 1674 c0 -11 3 -14 6 -6 3 7 2 16 -1 19 -3 4 -6 -2 -5 -13z"/>
<path d="M3227 1659 c7 -7 15 -10 18 -7 3 3 -2 9 -12 12 -14 6 -15 5 -6 -5z"/>
<path d="M3900 1655 c-7 -8 -18 -15 -25 -15 -8 0 -16 -6 -18 -12 -4 -10 -7
-10 -14 -1 -5 7 -13 9 -19 5 -15 -10 -25 -42 -14 -42 6 0 10 7 10 15 0 18 16
20 24 3 5 -10 7 -10 12 0 3 6 13 12 22 12 10 0 25 12 35 25 19 27 8 35 -13 10z"/>
<path d="M3995 1659 c-4 -6 -5 -12 -2 -15 7 -7 37 7 37 17 0 13 -27 11 -35 -2z"/>
<path d="M1945 1630 c-3 -6 1 -7 9 -4 18 7 21 14 7 14 -6 0 -13 -4 -16 -10z"/>
<path d="M3280 1636 c0 -2 7 -7 16 -10 8 -3 12 -2 9 4 -6 10 -25 14 -25 6z"/>
<path d="M3478 1633 c7 -3 16 -2 19 1 4 3 -2 6 -13 5 -11 0 -14 -3 -6 -6z"/>
<path d="M3640 1619 c0 -5 5 -7 10 -4 6 3 10 8 10 11 0 2 -4 4 -10 4 -5 0 -10
-5 -10 -11z"/>
<path d="M6820 1614 c0 -8 5 -12 10 -9 6 4 8 11 5 16 -9 14 -15 11 -15 -7z"/>
<path d="M3523 1573 c9 -2 23 -2 30 0 6 3 -1 5 -18 5 -16 0 -22 -2 -12 -5z"/>
<path d="M1180 1484 c-73 -12 -136 -27 -147 -36 -7 -6 -13 -7 -13 -3 0 4 -12
-1 -27 -11 -16 -10 -39 -24 -53 -31 -43 -22 -3 -14 54 11 98 43 169 49 362 31
60 -6 83 -4 89 5 4 6 2 17 -5 23 -10 9 -14 9 -17 -1 -3 -6 -9 -10 -14 -6 -20
12 -185 25 -229 18z"/>
<path d="M6451 1434 c0 -11 3 -14 6 -6 3 7 2 16 -1 19 -3 4 -6 -2 -5 -13z"/>
<path d="M2130 1300 c0 -5 5 -10 10 -10 6 0 10 5 10 10 0 6 -4 10 -10 10 -5 0
-10 -4 -10 -10z"/>
<path d="M2 1120 c0 -19 2 -27 5 -17 2 9 2 25 0 35 -3 9 -5 1 -5 -18z"/>
<path d="M5042 1098 c-16 -16 -15 -28 3 -28 8 0 15 -6 16 -12 2 -39 13 -64 43
-101 19 -23 37 -57 41 -75 3 -18 13 -39 21 -47 11 -11 13 -23 6 -48 -9 -33 6
-65 23 -49 5 4 6 -3 3 -15 -4 -14 -2 -21 6 -20 6 1 11 -8 10 -20 0 -14 7 -25
18 -29 10 -3 18 -10 18 -15 0 -12 37 -49 49 -49 5 0 13 -9 16 -21 4 -12 12
-18 21 -15 8 3 14 1 14 -4 0 -6 5 -10 11 -10 6 0 17 -7 25 -15 25 -24 39 -17
16 8 -12 13 -25 37 -28 55 -4 18 -11 29 -17 25 -6 -3 -7 -1 -3 5 6 10 -38 108
-55 122 -3 3 -17 26 -31 51 -44 79 -53 94 -58 99 -3 3 -11 16 -17 30 -61 125
-127 202 -151 178z"/>
<path d="M3405 1070 c3 -5 8 -10 11 -10 2 0 4 5 4 10 0 6 -5 10 -11 10 -5 0
-7 -4 -4 -10z"/>
<path d="M4400 980 c0 -5 5 -10 10 -10 6 0 10 5 10 10 0 6 -4 10 -10 10 -5 0
-10 -4 -10 -10z"/>
<path d="M0 429 l0 -433 30 40 c16 21 30 43 30 47 0 4 12 20 26 34 30 30 68
108 66 136 0 9 3 17 7 17 4 0 15 16 24 36 10 19 36 60 60 91 64 85 115 159
137 198 22 38 27 85 9 85 -5 0 -7 5 -3 12 4 7 3 8 -4 4 -7 -4 -22 4 -36 18
-13 14 -28 26 -35 26 -6 0 -11 4 -11 8 0 5 -21 20 -47 33 -27 13 -49 27 -51
31 -2 4 -20 10 -40 14 -20 4 -42 10 -47 15 -6 4 -20 8 -30 7 -11 -1 -35 2 -52
6 l-33 8 0 -433z"/>
<path d="M6240 825 c0 -8 2 -15 4 -15 2 0 6 7 10 15 3 8 1 15 -4 15 -6 0 -10
-7 -10 -15z"/>
<path d="M3920 780 c0 -5 5 -10 10 -10 6 0 10 5 10 10 0 6 -4 10 -10 10 -5 0
-10 -4 -10 -10z"/>
<path d="M1230 755 c0 -8 -9 -15 -19 -15 -10 0 -21 -6 -24 -13 -4 -10 3 -12
24 -9 23 3 29 9 29 28 0 13 -2 24 -5 24 -3 0 -5 -7 -5 -15z"/>
<path d="M2330 721 c0 -5 7 -14 15 -21 13 -10 15 -9 15 9 0 12 -6 21 -15 21
-8 0 -15 -4 -15 -9z"/>
<path d="M6231 693 c0 -29 2 -33 8 -18 7 18 4 55 -5 55 -2 0 -4 -17 -3 -37z"/>
<path d="M2547 700 c-3 -11 -1 -20 4 -20 5 0 9 9 9 20 0 11 -2 20 -4 20 -2 0
-6 -9 -9 -20z"/>
<path d="M1210 691 c0 -6 5 -13 10 -16 6 -3 10 1 10 9 0 9 -4 16 -10 16 -5 0
-10 -4 -10 -9z"/>
<path d="M3235 690 c3 -5 8 -10 11 -10 2 0 4 5 4 10 0 6 -5 10 -11 10 -5 0 -7
-4 -4 -10z"/>
<path d="M2038 660 c-9 -6 -19 -24 -23 -40 -4 -17 -10 -30 -14 -30 -4 0 -13
-11 -19 -25 -7 -15 -8 -25 -2 -25 6 0 10 4 10 10 0 5 20 31 44 57 50 53 52 81
4 53z"/>
<path d="M2586 644 c-4 -10 0 -14 11 -12 9 2 18 -3 20 -9 3 -8 -5 -13 -19 -14
-17 -1 -18 -3 -5 -6 22 -6 12 -23 -14 -23 -10 0 -19 -5 -19 -11 0 -7 9 -9 23
-5 12 3 29 6 37 6 12 0 15 8 12 33 -4 38 -36 66 -46 41z"/>
<path d="M5455 540 c3 -5 13 -10 21 -10 8 0 14 5 14 10 0 6 -9 10 -21 10 -11
0 -17 -4 -14 -10z"/>
<path d="M1185 480 c-11 -5 -37 -9 -57 -9 -21 -1 -38 -5 -38 -11 0 -5 -7 -10
-15 -10 -8 0 -16 -8 -17 -17 -2 -33 -4 -38 -11 -50 -12 -20 1 -33 32 -33 28 0
46 25 41 59 -1 7 3 10 9 6 6 -3 11 -13 11 -21 0 -18 8 -18 26 0 17 18 18 43 2
49 -7 3 -3 6 9 6 12 1 23 -4 25 -11 3 -8 12 -5 28 10 13 12 22 24 19 26 -11
10 -46 13 -64 6z"/>
<path d="M1730 463 c0 -17 -7 -38 -15 -47 -8 -8 -15 -19 -15 -25 0 -6 -4 -11
-9 -11 -5 0 -11 -9 -14 -20 -3 -11 -3 -20 -1 -20 11 0 54 45 54 57 0 7 14 26
31 42 20 20 26 32 18 36 -6 4 -15 2 -19 -5 -6 -9 -10 -8 -19 6 -9 17 -10 15
-11 -13z"/>
<path d="M1925 460 c-3 -5 -1 -10 4 -10 6 0 11 5 11 10 0 6 -2 10 -4 10 -3 0
-8 -4 -11 -10z"/>
<path d="M4880 449 c0 -5 5 -7 10 -4 6 3 10 8 10 11 0 2 -4 4 -10 4 -5 0 -10
-5 -10 -11z"/>
<path d="M4905 410 c3 -5 8 -10 11 -10 2 0 4 5 4 10 0 6 -5 10 -11 10 -5 0 -7
-4 -4 -10z"/>
<path d="M1860 379 c0 -5 5 -7 10 -4 6 3 10 8 10 11 0 2 -4 4 -10 4 -5 0 -10
-5 -10 -11z"/>
<path d="M1927 340 c-3 -11 -3 -20 -1 -20 2 0 8 9 14 20 6 11 7 20 2 20 -6 0
-12 -9 -15 -20z"/>
<path d="M559 323 c-13 -16 -12 -17 4 -4 16 13 21 21 13 21 -2 0 -10 -8 -17
-17z"/>
<path d="M730 324 c-8 -4 -20 -13 -27 -21 -7 -9 -24 -15 -38 -15 -14 0 -25 -4
-25 -9 0 -5 -7 -9 -15 -9 -8 0 -15 -7 -15 -15 0 -8 -5 -15 -11 -15 -11 0 -39
-25 -39 -35 0 -3 -9 -15 -20 -27 -10 -12 -17 -25 -14 -29 3 -5 -2 -19 -10 -32
-15 -22 -14 -31 10 -99 6 -17 28 -18 270 -18 177 0 264 3 264 10 0 6 -8 10
-17 8 -14 -2 -18 5 -20 27 -2 29 -2 29 7 5 4 -14 8 -19 9 -12 1 6 11 12 24 12
12 0 31 7 41 15 18 13 22 13 38 -5 21 -23 48 -26 66 -8 9 9 15 9 24 0 9 -9 9
-12 0 -12 -7 0 -12 -4 -12 -8 0 -16 93 -32 185 -32 80 0 93 2 89 15 -4 8 -12
15 -20 15 -8 0 -14 6 -14 14 0 16 -21 26 -56 26 -15 0 -24 6 -24 15 0 8 -9 15
-20 15 -13 0 -20 7 -20 19 0 21 -22 33 -45 25 -8 -4 -15 -1 -15 5 0 6 -16 19
-35 28 -19 9 -35 21 -35 25 0 5 -8 8 -17 6 -10 -2 -17 2 -16 8 1 6 -8 10 -20
10 -15 -1 -21 4 -19 16 2 12 -3 15 -17 11 -11 -3 -30 2 -43 11 -12 9 -30 16
-40 16 -10 0 -18 5 -18 11 0 5 -5 7 -11 3 -6 -3 -14 -2 -18 4 -10 17 -230 38
-261 26z"/>
<path d="M1657 317 c-15 -11 -15 -14 0 -32 15 -19 15 -19 9 -1 -4 11 -1 23 6
27 7 4 10 10 7 13 -3 3 -13 0 -22 -7z"/>
<path d="M5090 295 c0 -14 5 -25 11 -25 5 0 8 -4 5 -9 -8 -13 14 -71 27 -71 7
0 13 -12 14 -26 1 -28 18 -52 29 -41 4 3 -1 13 -10 23 -10 9 -14 24 -11 35 4
10 2 19 -2 19 -11 0 -49 90 -45 107 2 7 -2 13 -8 13 -5 0 -10 -11 -10 -25z"/>
<path d="M1793 293 c-18 -7 -16 -23 2 -23 8 0 15 7 15 15 0 8 -1 15 -2 14 -2
0 -9 -3 -15 -6z"/>
<path d="M1628 273 c7 -3 16 -2 19 1 4 3 -2 6 -13 5 -11 0 -14 -3 -6 -6z"/>
<path d="M6610 266 c0 -2 7 -9 15 -16 9 -7 15 -8 15 -2 0 5 -7 12 -15 16 -8 3
-15 4 -15 2z"/>
<path d="M1764 225 c-11 -18 -20 -22 -28 -16 -9 7 -19 -3 -36 -34 -17 -30 -31
-45 -45 -45 -15 0 -17 -2 -6 -9 7 -5 9 -10 4 -12 -6 -2 -13 -16 -17 -31 -11
-47 27 -36 61 17 15 25 31 45 36 45 4 0 7 6 7 13 0 7 8 17 19 24 10 6 21 25
23 42 5 38 3 38 -18 6z"/>
<path d="M1565 200 c-3 -5 -1 -10 4 -10 6 0 11 5 11 10 0 6 -2 10 -4 10 -3 0
-8 -4 -11 -10z"/>
<path d="M5670 139 c-25 -17 -44 -36 -42 -42 3 -9 0 -9 -9 0 -9 9 -21 7 -55
-12 -23 -13 -45 -21 -48 -18 -3 4 -6 1 -6 -5 0 -7 -8 -12 -17 -12 -10 0 -31
-12 -48 -26 l-30 -26 76 4 c72 3 76 4 67 22 -9 17 -7 18 16 14 14 -3 27 -1 27
3 1 5 2 13 3 18 3 24 14 17 35 -19 12 -22 27 -40 32 -40 11 0 -5 35 -21 45 -6
3 -10 13 -10 22 0 11 6 14 24 9 20 -5 23 -3 19 14 -6 22 22 29 30 8 3 -7 6 -3
6 10 1 30 23 28 43 -5 13 -21 18 -23 18 -10 0 9 -4 17 -8 17 -4 0 -13 14 -19
30 -14 38 -27 37 -83 -1z"/>
<path d="M2278 153 c7 -3 16 -2 19 1 4 3 -2 6 -13 5 -11 0 -14 -3 -6 -6z"/>
<path d="M4875 150 c-3 -5 1 -10 10 -10 9 0 13 5 10 10 -3 6 -8 10 -10 10 -2
0 -7 -4 -10 -10z"/>
<path d="M5050 130 c0 -11 2 -20 4 -20 2 0 6 9 9 20 3 11 1 20 -4 20 -5 0 -9
-9 -9 -20z"/>
<path d="M1788 113 c7 -3 16 -2 19 1 4 3 -2 6 -13 5 -11 0 -14 -3 -6 -6z"/>
<path d="M5732 60 c7 -10 14 -18 15 -16 6 6 -9 36 -18 36 -5 0 -4 -9 3 -20z"/>
<path d="M4894 54 c5 -10 11 -27 13 -36 3 -10 14 -18 24 -18 24 0 25 20 2 21
-11 0 -13 3 -5 6 14 5 17 33 3 33 -5 0 -17 3 -27 7 -14 5 -16 3 -10 -13z"/>
<path d="M1736 36 c-10 -15 -12 -27 -6 -31 10 -6 14 1 11 18 -1 4 6 10 14 13
8 4 15 10 15 15 0 17 -18 9 -34 -15z"/>
<path d="M5690 47 c0 -9 5 -17 11 -17 8 0 8 -5 -1 -15 -10 -12 -10 -15 4 -15
20 0 20 19 1 44 -13 17 -15 18 -15 3z"/>
<path d="M1511 14 c0 -11 3 -14 6 -6 3 7 2 16 -1 19 -3 4 -6 -2 -5 -13z"/>
</g>
</svg>
